<svg xmlns="http://www.w3.org/2000/svg" width="573" height="248" viewBox="0 0 573 248">
  <rect id="Rectangle_1_copy_35" data-name="Rectangle 1 copy 35" x="34" y="95" width="15" height="15"/>
  <rect id="Rectangle_1_copy_36" data-name="Rectangle 1 copy 36" x="49" y="95" width="15" height="15"/>
  <rect id="Rectangle_1_copy_37" data-name="Rectangle 1 copy 37" x="49" y="80" width="15" height="15"/>
  <rect id="Rectangle_1_copy_38" data-name="Rectangle 1 copy 38" x="34" y="65" width="15" height="15"/>
  <rect id="Rectangle_1_copy_39" data-name="Rectangle 1 copy 39" x="19" y="50" width="15" height="15"/>
  <rect id="Rectangle_1_copy_40" data-name="Rectangle 1 copy 40" x="19" y="35" width="15" height="15"/>
  <rect id="Rectangle_1_copy_41" data-name="Rectangle 1 copy 41" x="34" y="20" width="15" height="15"/>
  <rect id="Rectangle_1_copy_42" data-name="Rectangle 1 copy 42" x="49" y="20" width="15" height="15"/>
  <rect id="Rectangle_1_copy_43" data-name="Rectangle 1 copy 43" x="64" y="20" width="15" height="15"/>
  <rect id="Rectangle_1_copy_44" data-name="Rectangle 1 copy 44" x="79" y="35" width="15" height="15"/>
  <rect id="Rectangle_1_copy_46" data-name="Rectangle 1 copy 46" x="79" y="50" width="15" height="15"/>
  <rect id="Rectangle_1_copy_45" data-name="Rectangle 1 copy 45" x="79" y="65" width="15" height="15"/>
  <rect id="Rectangle_1_copy_47" data-name="Rectangle 1 copy 47" x="79" y="80" width="15" height="15"/>
  <rect id="Rectangle_1_copy_48" data-name="Rectangle 1 copy 48" x="79" y="95" width="15" height="15"/>
  <rect id="Rectangle_1_copy_49" data-name="Rectangle 1 copy 49" x="79" y="110" width="15" height="15"/>
  <rect id="Rectangle_1_copy_50" data-name="Rectangle 1 copy 50" x="64" y="125" width="15" height="15"/>
  <rect id="Rectangle_1_copy_51" data-name="Rectangle 1 copy 51" x="34" y="155" width="15" height="15"/>
  <rect id="Rectangle_1_copy_53" data-name="Rectangle 1 copy 53" x="19" y="170" width="15" height="15"/>
  <rect id="Rectangle_1_copy_54" data-name="Rectangle 1 copy 54" x="19" y="185" width="15" height="15"/>
  <rect id="Rectangle_1_copy_92" data-name="Rectangle 1 copy 92" x="19" y="200" width="15" height="15"/>
  <rect id="Rectangle_1_copy_55" data-name="Rectangle 1 copy 55" x="34" y="200" width="15" height="15"/>
  <rect id="Rectangle_1_copy_72" data-name="Rectangle 1 copy 72" x="64" y="214" width="15" height="15"/>
  <rect id="Rectangle_1_copy_93" data-name="Rectangle 1 copy 93" x="49" y="214" width="15" height="15"/>
  <rect id="Rectangle_1_copy_73" data-name="Rectangle 1 copy 73" x="79" y="199" width="15" height="15"/>
  <rect id="Rectangle_1_copy_74" data-name="Rectangle 1 copy 74" x="94" y="184" width="15" height="15"/>
  <rect id="Rectangle_1_copy_75" data-name="Rectangle 1 copy 75" x="109" y="169" width="15" height="15"/>
  <rect id="Rectangle_1_copy_94" data-name="Rectangle 1 copy 94" x="124" y="154" width="15" height="15"/>
  <rect id="Rectangle_1_copy_95" data-name="Rectangle 1 copy 95" x="139" y="140" width="15" height="15"/>
  <rect id="Rectangle_1_copy_96" data-name="Rectangle 1 copy 96" x="154" y="124" width="15" height="15"/>
  <rect id="Rectangle_1_copy_97" data-name="Rectangle 1 copy 97" x="169" y="110" width="15" height="15"/>
  <rect id="Rectangle_1_copy_98" data-name="Rectangle 1 copy 98" x="184" y="95" width="15" height="15"/>
  <rect id="Rectangle_1_copy_100" data-name="Rectangle 1 copy 100" x="184" y="95" width="15" height="15"/>
  <rect id="Rectangle_1_copy_101" data-name="Rectangle 1 copy 101" x="199" y="80" width="15" height="15"/>
  <rect id="Rectangle_1_copy_102" data-name="Rectangle 1 copy 102" x="214" y="65" width="15" height="15"/>
  <rect id="Rectangle_1_copy_103" data-name="Rectangle 1 copy 103" x="229" y="50" width="15" height="15"/>
  <rect id="Rectangle_1_copy_104" data-name="Rectangle 1 copy 104" x="244" y="35" width="15" height="15"/>
  <rect id="Rectangle_1_copy_105" data-name="Rectangle 1 copy 105" x="259" y="35" width="15" height="15"/>
  <rect id="Rectangle_1_copy_106" data-name="Rectangle 1 copy 106" x="274" y="35" width="15" height="15"/>
  <rect id="Rectangle_1_copy_114" data-name="Rectangle 1 copy 114" x="274" y="35" width="15" height="15"/>
  <rect id="Rectangle_1_copy_107" data-name="Rectangle 1 copy 107" x="289" y="35" width="15" height="15"/>
  <rect id="Rectangle_1_copy_109" data-name="Rectangle 1 copy 109" x="289" y="50" width="15" height="15"/>
  <rect id="Rectangle_1_copy_110" data-name="Rectangle 1 copy 110" x="304" y="65" width="15" height="15"/>
  <rect id="Rectangle_1_copy_115" data-name="Rectangle 1 copy 115" x="319" y="80" width="15" height="15"/>
  <rect id="Rectangle_1_copy_116" data-name="Rectangle 1 copy 116" x="334" y="95" width="15" height="15"/>
  <rect id="Rectangle_1_copy_117" data-name="Rectangle 1 copy 117" x="349" y="110" width="15" height="15"/>
  <rect id="Rectangle_1_copy_118" data-name="Rectangle 1 copy 118" x="379" y="140" width="15" height="15"/>
  <rect id="Rectangle_1_copy_119" data-name="Rectangle 1 copy 119" x="394" y="155" width="15" height="15"/>
  <rect id="Rectangle_1_copy_120" data-name="Rectangle 1 copy 120" x="409" y="170" width="15" height="15"/>
  <rect id="Rectangle_1_copy_157" data-name="Rectangle 1 copy 157" x="409" y="200" width="15" height="15"/>
  <rect id="Rectangle_1_copy_158" data-name="Rectangle 1 copy 158" x="439" y="170" width="15" height="15"/>
  <rect id="Rectangle_1_copy_159" data-name="Rectangle 1 copy 159" x="394" y="200" width="15" height="15"/>
  <rect id="Rectangle_1_copy_160" data-name="Rectangle 1 copy 160" x="379" y="200" width="15" height="15"/>
  <rect id="Rectangle_1_copy_161" data-name="Rectangle 1 copy 161" x="379" y="185" width="15" height="15"/>
  <rect id="Rectangle_1_copy_123" data-name="Rectangle 1 copy 123" x="424" y="185" width="15" height="15"/>
  <rect id="Rectangle_1_copy_137" data-name="Rectangle 1 copy 137" x="439" y="200" width="15" height="15"/>
  <rect id="Rectangle_1_copy_149" data-name="Rectangle 1 copy 149" x="454" y="185" width="15" height="15"/>
  <rect id="Rectangle_1_copy_150" data-name="Rectangle 1 copy 150" x="469" y="170" width="15" height="15"/>
  <rect id="Rectangle_1_copy_153" data-name="Rectangle 1 copy 153" x="454" y="155" width="15" height="15"/>
  <rect id="Rectangle_1_copy_148" data-name="Rectangle 1 copy 148" x="454" y="215" width="15" height="15"/>
  <rect id="Rectangle_1_copy_129" data-name="Rectangle 1 copy 129" x="469" y="215" width="15" height="15"/>
  <rect id="Rectangle_1_copy_130" data-name="Rectangle 1 copy 130" x="484" y="215" width="15" height="15"/>
  <rect id="Rectangle_1_copy_131" data-name="Rectangle 1 copy 131" x="499" y="200" width="15" height="15"/>
  <rect id="Rectangle_1_copy_132" data-name="Rectangle 1 copy 132" x="514" y="185" width="15" height="15"/>
  <rect id="Rectangle_1_copy_133" data-name="Rectangle 1 copy 133" x="529" y="170" width="15" height="15"/>
  <rect id="Rectangle_1_copy_134" data-name="Rectangle 1 copy 134" x="544" y="185" width="15" height="15"/>
  <rect id="Rectangle_1_copy_135" data-name="Rectangle 1 copy 135" x="544" y="200" width="15" height="15"/>
  <rect id="Rectangle_1_copy_136" data-name="Rectangle 1 copy 136" x="529" y="215" width="15" height="15"/>
  <rect id="Rectangle_1_copy_108" data-name="Rectangle 1 copy 108" x="304" y="35" width="15" height="15"/>
  <rect id="Rectangle_1_copy_111" data-name="Rectangle 1 copy 111" x="319" y="35" width="15" height="15"/>
  <rect id="Rectangle_1_copy_112" data-name="Rectangle 1 copy 112" x="334" y="35" width="15" height="15"/>
  <rect id="Rectangle_1_copy_113" data-name="Rectangle 1 copy 113" x="349" y="35" width="15" height="15"/>
  <rect id="Rectangle_1_copy_121" data-name="Rectangle 1 copy 121" x="364" y="35" width="15" height="15"/>
  <rect id="Rectangle_1_copy_122" data-name="Rectangle 1 copy 122" x="379" y="50" width="15" height="15"/>
  <rect id="Rectangle_1_copy_124" data-name="Rectangle 1 copy 124" x="409" y="80" width="15" height="15"/>
  <rect id="Rectangle_1_copy_125" data-name="Rectangle 1 copy 125" x="394" y="65" width="15" height="15"/>
  <rect id="Rectangle_1_copy_126" data-name="Rectangle 1 copy 126" x="409" y="95" width="15" height="15"/>
  <rect id="Rectangle_1_copy_128" data-name="Rectangle 1 copy 128" x="409" y="110" width="15" height="15"/>
  <rect id="Rectangle_1_copy_138" data-name="Rectangle 1 copy 138" x="394" y="125" width="15" height="15"/>
  <rect id="Rectangle_1_copy_139" data-name="Rectangle 1 copy 139" x="379" y="125" width="15" height="15"/>
  <rect id="Rectangle_1_copy_140" data-name="Rectangle 1 copy 140" x="364" y="125" width="15" height="15"/>
  <rect id="Rectangle_1_copy_141" data-name="Rectangle 1 copy 141" x="349" y="125" width="15" height="15"/>
  <rect id="Rectangle_1_copy_142" data-name="Rectangle 1 copy 142" x="334" y="125" width="15" height="15"/>
  <rect id="Rectangle_1_copy_143" data-name="Rectangle 1 copy 143" x="319" y="140" width="15" height="15"/>
  <rect id="Rectangle_1_copy_144" data-name="Rectangle 1 copy 144" x="304" y="155" width="15" height="15"/>
  <rect id="Rectangle_1_copy_145" data-name="Rectangle 1 copy 145" x="319" y="170" width="15" height="15"/>
  <rect id="Rectangle_1_copy_147" data-name="Rectangle 1 copy 147" x="334" y="170" width="15" height="15"/>
  <rect id="Rectangle_1_copy_146" data-name="Rectangle 1 copy 146" x="319" y="155" width="15" height="15"/>
  <rect id="Rectangle_1_copy_127" data-name="Rectangle 1 copy 127" x="424" y="95" width="15" height="15"/>
  <rect id="Rectangle_1_copy_99" data-name="Rectangle 1 copy 99" x="169" y="80" width="15" height="15"/>
  <rect id="Rectangle_1_copy_76" data-name="Rectangle 1 copy 76" x="124" y="169" width="15" height="15"/>
  <rect id="Rectangle_1_copy_77" data-name="Rectangle 1 copy 77" x="139" y="169" width="15" height="15"/>
  <rect id="Rectangle_1_copy_78" data-name="Rectangle 1 copy 78" x="154" y="169" width="15" height="15"/>
  <rect id="Rectangle_1_copy_79" data-name="Rectangle 1 copy 79" x="169" y="169" width="15" height="15"/>
  <rect id="Rectangle_1_copy_80" data-name="Rectangle 1 copy 80" x="184" y="169" width="15" height="15"/>
  <rect id="Rectangle_1_copy_81" data-name="Rectangle 1 copy 81" x="199" y="169" width="15" height="15"/>
  <rect id="Rectangle_1_copy_82" data-name="Rectangle 1 copy 82" x="214" y="169" width="15" height="15"/>
  <rect id="Rectangle_1_copy_83" data-name="Rectangle 1 copy 83" x="229" y="184" width="15" height="15"/>
  <rect id="Rectangle_1_copy_84" data-name="Rectangle 1 copy 84" x="229" y="199" width="15" height="15"/>
  <rect id="Rectangle_1_copy_85" data-name="Rectangle 1 copy 85" x="214" y="214" width="15" height="15"/>
  <rect id="Rectangle_1_copy_86" data-name="Rectangle 1 copy 86" x="199" y="214" width="15" height="15"/>
  <rect id="Rectangle_1_copy_87" data-name="Rectangle 1 copy 87" x="184" y="214" width="15" height="15"/>
  <rect id="Rectangle_1_copy_88" data-name="Rectangle 1 copy 88" x="169" y="199" width="15" height="15"/>
  <rect id="Rectangle_1_copy_89" data-name="Rectangle 1 copy 89" x="154" y="199" width="15" height="15"/>
  <rect id="Rectangle_1_copy_90" data-name="Rectangle 1 copy 90" x="139" y="199" width="15" height="15"/>
  <rect id="Rectangle_1_copy_91" data-name="Rectangle 1 copy 91" x="139" y="214" width="15" height="15"/>
  <rect id="Rectangle_1_copy_56" data-name="Rectangle 1 copy 56" x="49" y="185" width="15" height="15"/>
  <rect id="Rectangle_1_copy_57" data-name="Rectangle 1 copy 57" x="64" y="170" width="15" height="15"/>
  <rect id="Rectangle_1_copy_58" data-name="Rectangle 1 copy 58" x="79" y="155" width="15" height="15"/>
  <rect id="Rectangle_1_copy_59" data-name="Rectangle 1 copy 59" x="94" y="140" width="15" height="15"/>
  <rect id="Rectangle_1_copy_60" data-name="Rectangle 1 copy 60" x="109" y="125" width="15" height="15"/>
  <rect id="Rectangle_1_copy_61" data-name="Rectangle 1 copy 61" x="124" y="110" width="15" height="15"/>
  <rect id="Rectangle_1_copy_62" data-name="Rectangle 1 copy 62" x="139" y="95" width="15" height="15"/>
  <rect id="Rectangle_1_copy_63" data-name="Rectangle 1 copy 63" x="154" y="80" width="15" height="15"/>
  <rect id="Rectangle_1_copy_64" data-name="Rectangle 1 copy 64" x="154" y="65" width="15" height="15"/>
  <rect id="Rectangle_1_copy_65" data-name="Rectangle 1 copy 65" x="139" y="50" width="15" height="15"/>
  <rect id="Rectangle_1_copy_66" data-name="Rectangle 1 copy 66" x="139" y="35" width="15" height="15"/>
  <rect id="Rectangle_1_copy_67" data-name="Rectangle 1 copy 67" x="139" y="20" width="15" height="15"/>
  <rect id="Rectangle_1_copy_68" data-name="Rectangle 1 copy 68" x="154" y="20" width="15" height="15"/>
  <rect id="Rectangle_1_copy_69" data-name="Rectangle 1 copy 69" x="169" y="35" width="15" height="15"/>
  <rect id="Rectangle_1_copy_71" data-name="Rectangle 1 copy 71" x="184" y="35" width="15" height="15"/>
  <rect id="Rectangle_1_copy_70" data-name="Rectangle 1 copy 70" x="169" y="50" width="15" height="15"/>
  <rect id="Rectangle_1_copy_52" data-name="Rectangle 1 copy 52" x="49" y="140" width="15" height="15"/>
</svg>
