<svg xmlns="http://www.w3.org/2000/svg" width="669" height="803" viewBox="0 0 669 803">
  <rect x="545" y="139" width="15" height="15"/>
  <rect id="Rectangle_1_copy_3" data-name="Rectangle 1 copy 3" x="545" y="124" width="15" height="15"/>
  <rect id="Rectangle_1_copy" data-name="Rectangle 1 copy" x="500" y="184" width="15" height="15"/>
  <rect id="Rectangle_1_copy_4" data-name="Rectangle 1 copy 4" x="470" y="154" width="15" height="15"/>
  <rect id="Rectangle_1_copy_9" data-name="Rectangle 1 copy 9" x="530" y="139" width="15" height="15"/>
  <rect id="Rectangle_1_copy_10" data-name="Rectangle 1 copy 10" x="515" y="139" width="15" height="15"/>
  <rect id="Rectangle_1_copy_11" data-name="Rectangle 1 copy 11" x="500" y="139" width="15" height="15"/>
  <rect id="Rectangle_1_copy_12" data-name="Rectangle 1 copy 12" x="485" y="139" width="15" height="15"/>
  <rect id="Rectangle_1_copy_12-2" data-name="Rectangle 1 copy 12" x="470" y="139" width="15" height="15"/>
  <rect id="Rectangle_1_copy_12-3" data-name="Rectangle 1 copy 12" x="455" y="139" width="15" height="15"/>
  <rect id="Rectangle_1_copy_13" data-name="Rectangle 1 copy 13" x="440" y="139" width="15" height="15"/>
  <rect id="Rectangle_1_copy_13-2" data-name="Rectangle 1 copy 13" x="425" y="139" width="15" height="15"/>
  <rect id="Rectangle_1_copy_13-3" data-name="Rectangle 1 copy 13" x="410" y="139" width="15" height="15"/>
  <rect id="Rectangle_1_copy_13-4" data-name="Rectangle 1 copy 13" x="395" y="139" width="15" height="15"/>
  <rect id="Rectangle_1_copy_13-5" data-name="Rectangle 1 copy 13" x="380" y="139" width="15" height="15"/>
  <rect id="Rectangle_1_copy_13-6" data-name="Rectangle 1 copy 13" x="365" y="139" width="15" height="15"/>
  <rect id="Rectangle_1_copy_14" data-name="Rectangle 1 copy 14" x="350" y="139" width="15" height="15"/>
  <rect id="Rectangle_1_copy_41" data-name="Rectangle 1 copy 41" x="395" y="154" width="15" height="15"/>
  <rect id="Rectangle_1_copy_59" data-name="Rectangle 1 copy 59" x="335" y="214" width="15" height="15"/>
  <rect id="Rectangle_1_copy_60" data-name="Rectangle 1 copy 60" x="350" y="229" width="15" height="15"/>
  <rect id="Rectangle_1_copy_61" data-name="Rectangle 1 copy 61" x="380" y="259" width="15" height="15"/>
  <rect id="Rectangle_1_copy_62" data-name="Rectangle 1 copy 62" x="425" y="154" width="15" height="15"/>
  <rect id="Rectangle_1_copy_63" data-name="Rectangle 1 copy 63" x="440" y="154" width="15" height="15"/>
  <rect id="Rectangle_1_copy_67" data-name="Rectangle 1 copy 67" x="350" y="259" width="15" height="15"/>
  <rect id="Rectangle_1_copy_69" data-name="Rectangle 1 copy 69" x="335" y="259" width="15" height="15"/>
  <rect id="Rectangle_1_copy_70" data-name="Rectangle 1 copy 70" x="320" y="259" width="15" height="15"/>
  <rect id="Rectangle_1_copy_71" data-name="Rectangle 1 copy 71" x="305" y="259" width="15" height="15"/>
  <rect id="Rectangle_1_copy_72" data-name="Rectangle 1 copy 72" x="290" y="259" width="15" height="15"/>
  <rect id="Rectangle_1_copy_73" data-name="Rectangle 1 copy 73" x="290" y="424" width="15" height="15"/>
  <rect id="Rectangle_1_copy_106" data-name="Rectangle 1 copy 106" x="275" y="424" width="15" height="15"/>
  <rect id="Rectangle_1_copy_155" data-name="Rectangle 1 copy 155" x="260" y="424" width="15" height="15"/>
  <rect id="Rectangle_1_copy_170" data-name="Rectangle 1 copy 170" x="245" y="424" width="15" height="15"/>
  <rect id="Rectangle_1_copy_169" data-name="Rectangle 1 copy 169" x="231" y="439" width="15" height="15"/>
  <rect id="Rectangle_1_copy_171" data-name="Rectangle 1 copy 171" x="231" y="454" width="15" height="15"/>
  <rect id="Rectangle_1_copy_172" data-name="Rectangle 1 copy 172" x="246" y="469" width="15" height="15"/>
  <rect id="Rectangle_1_copy_224" data-name="Rectangle 1 copy 224" x="261" y="469" width="15" height="15"/>
  <rect id="Rectangle_1_copy_225" data-name="Rectangle 1 copy 225" x="261" y="454" width="15" height="15"/>
  <rect id="Rectangle_1_copy_74" data-name="Rectangle 1 copy 74" x="305" y="439" width="15" height="15"/>
  <rect id="Rectangle_1_copy_75" data-name="Rectangle 1 copy 75" x="305" y="454" width="15" height="15"/>
  <rect id="Rectangle_1_copy_76" data-name="Rectangle 1 copy 76" x="305" y="469" width="15" height="15"/>
  <rect id="Rectangle_1_copy_68" data-name="Rectangle 1 copy 68" x="305" y="484" width="15" height="15"/>
  <rect id="Rectangle_1_copy_77" data-name="Rectangle 1 copy 77" x="290" y="499" width="15" height="15"/>
  <rect id="Rectangle_1_copy_79" data-name="Rectangle 1 copy 79" x="275" y="514" width="15" height="15"/>
  <rect id="Rectangle_1_copy_80" data-name="Rectangle 1 copy 80" x="260" y="529" width="15" height="15"/>
  <rect id="Rectangle_1_copy_256" data-name="Rectangle 1 copy 256" x="246" y="529" width="15" height="15"/>
  <rect id="Rectangle_1_copy_81" data-name="Rectangle 1 copy 81" x="216" y="439" width="15" height="15"/>
  <rect id="Rectangle_1_copy_82" data-name="Rectangle 1 copy 82" x="216" y="454" width="15" height="15"/>
  <rect id="Rectangle_1_copy_78" data-name="Rectangle 1 copy 78" x="201" y="469" width="15" height="15"/>
  <rect id="Rectangle_1_copy_83" data-name="Rectangle 1 copy 83" x="186" y="484" width="15" height="15"/>
  <rect id="Rectangle_1_copy_85" data-name="Rectangle 1 copy 85" x="171" y="499" width="15" height="15"/>
  <rect id="Rectangle_1_copy_86" data-name="Rectangle 1 copy 86" x="156" y="499" width="15" height="15"/>
  <rect id="Rectangle_1_copy_87" data-name="Rectangle 1 copy 87" x="141" y="499" width="15" height="15"/>
  <rect id="Rectangle_1_copy_88" data-name="Rectangle 1 copy 88" x="111" y="484" width="15" height="15"/>
  <rect id="Rectangle_1_copy_187" data-name="Rectangle 1 copy 187" x="126" y="499" width="15" height="15"/>
  <rect id="Rectangle_1_copy_188" data-name="Rectangle 1 copy 188" x="216" y="424" width="15" height="15"/>
  <rect id="Rectangle_1_copy_189" data-name="Rectangle 1 copy 189" x="201" y="409" width="15" height="15"/>
  <rect id="Rectangle_1_copy_190" data-name="Rectangle 1 copy 190" x="171" y="424" width="15" height="15"/>
  <rect id="Rectangle_1_copy_191" data-name="Rectangle 1 copy 191" x="186" y="409" width="15" height="15"/>
  <rect id="Rectangle_1_copy_192" data-name="Rectangle 1 copy 192" x="171" y="439" width="15" height="15"/>
  <rect id="Rectangle_1_copy_193" data-name="Rectangle 1 copy 193" x="186" y="439" width="15" height="15"/>
  <rect id="Rectangle_1_copy_194" data-name="Rectangle 1 copy 194" x="95" y="319" width="15" height="15"/>
  <rect id="Rectangle_1_copy_89" data-name="Rectangle 1 copy 89" x="80" y="454" width="15" height="15"/>
  <rect id="Rectangle_1_copy_98" data-name="Rectangle 1 copy 98" x="80" y="439" width="15" height="15"/>
  <rect id="Rectangle_1_copy_97" data-name="Rectangle 1 copy 97" x="96" y="514" width="15" height="15"/>
  <rect id="Rectangle_1_copy_99" data-name="Rectangle 1 copy 99" x="125" y="544" width="15" height="15"/>
  <rect id="Rectangle_1_copy_84" data-name="Rectangle 1 copy 84" x="81" y="499" width="15" height="15"/>
  <rect id="Rectangle_1_copy_90" data-name="Rectangle 1 copy 90" x="65" y="484" width="15" height="15"/>
  <rect id="Rectangle_1_copy_91" data-name="Rectangle 1 copy 91" x="65" y="469" width="15" height="15"/>
  <rect id="Rectangle_1_copy_92" data-name="Rectangle 1 copy 92" x="65" y="454" width="15" height="15"/>
  <rect id="Rectangle_1_copy_93" data-name="Rectangle 1 copy 93" x="65" y="439" width="15" height="15"/>
  <rect id="Rectangle_1_copy_94" data-name="Rectangle 1 copy 94" x="65" y="424" width="15" height="15"/>
  <rect id="Rectangle_1_copy_95" data-name="Rectangle 1 copy 95" x="65" y="409" width="15" height="15"/>
  <rect id="Rectangle_1_copy_96" data-name="Rectangle 1 copy 96" x="65" y="394" width="15" height="15"/>
  <rect id="Rectangle_1_copy_42" data-name="Rectangle 1 copy 42" x="380" y="154" width="15" height="15"/>
  <rect id="Rectangle_1_copy_195" data-name="Rectangle 1 copy 195" x="365" y="154" width="15" height="15"/>
  <rect id="Rectangle_1_copy_43" data-name="Rectangle 1 copy 43" x="365" y="259" width="15" height="15"/>
  <rect id="Rectangle_1_copy_44" data-name="Rectangle 1 copy 44" x="335" y="184" width="15" height="15"/>
  <rect id="Rectangle_1_copy_45" data-name="Rectangle 1 copy 45" x="350" y="169" width="15" height="15"/>
  <rect id="Rectangle_1_copy_46" data-name="Rectangle 1 copy 46" x="335" y="199" width="15" height="15"/>
  <rect id="Rectangle_1_copy_47" data-name="Rectangle 1 copy 47" x="515" y="199" width="15" height="15"/>
  <rect id="Rectangle_1_copy_48" data-name="Rectangle 1 copy 48" x="515" y="214" width="15" height="15"/>
  <rect id="Rectangle_1_copy_49" data-name="Rectangle 1 copy 49" x="515" y="229" width="15" height="15"/>
  <rect id="Rectangle_1_copy_50" data-name="Rectangle 1 copy 50" x="470" y="259" width="15" height="15"/>
  <rect id="Rectangle_1_copy_51" data-name="Rectangle 1 copy 51" x="500" y="244" width="15" height="15"/>
  <rect id="Rectangle_1_copy_200" data-name="Rectangle 1 copy 200" x="485" y="259" width="15" height="15"/>
  <rect id="Rectangle_1_copy_52" data-name="Rectangle 1 copy 52" x="455" y="259" width="15" height="15"/>
  <rect id="Rectangle_1_copy_53" data-name="Rectangle 1 copy 53" x="440" y="259" width="15" height="15"/>
  <rect id="Rectangle_1_copy_54" data-name="Rectangle 1 copy 54" x="425" y="244" width="15" height="15"/>
  <rect id="Rectangle_1_copy_55" data-name="Rectangle 1 copy 55" x="425" y="229" width="15" height="15"/>
  <rect id="Rectangle_1_copy_56" data-name="Rectangle 1 copy 56" x="455" y="199" width="15" height="15"/>
  <rect id="Rectangle_1_copy_201" data-name="Rectangle 1 copy 201" x="470" y="199" width="15" height="15"/>
  <rect id="Rectangle_1_copy_202" data-name="Rectangle 1 copy 202" x="470" y="214" width="15" height="15"/>
  <rect id="Rectangle_1_copy_57" data-name="Rectangle 1 copy 57" x="440" y="199" width="15" height="15"/>
  <rect id="Rectangle_1_copy_58" data-name="Rectangle 1 copy 58" x="425" y="214" width="15" height="15"/>
  <rect id="Rectangle_1_copy_14-2" data-name="Rectangle 1 copy 14" x="335" y="139" width="15" height="15"/>
  <rect id="Rectangle_1_copy_14-3" data-name="Rectangle 1 copy 14" x="320" y="139" width="15" height="15"/>
  <rect id="Rectangle_1_copy_14-4" data-name="Rectangle 1 copy 14" x="305" y="139" width="15" height="15"/>
  <rect id="Rectangle_1_copy_14-5" data-name="Rectangle 1 copy 14" x="290" y="139" width="15" height="15"/>
  <rect id="Rectangle_1_copy_14-6" data-name="Rectangle 1 copy 14" x="275" y="139" width="15" height="15"/>
  <rect id="Rectangle_1_copy_15" data-name="Rectangle 1 copy 15" x="260" y="139" width="15" height="15"/>
  <rect id="Rectangle_1_copy_15-2" data-name="Rectangle 1 copy 15" x="245" y="139" width="15" height="15"/>
  <rect id="Rectangle_1_copy_15-3" data-name="Rectangle 1 copy 15" x="230" y="139" width="15" height="15"/>
  <rect id="Rectangle_1_copy_30" data-name="Rectangle 1 copy 30" x="245" y="169" width="15" height="15"/>
  <rect id="Rectangle_1_copy_197" data-name="Rectangle 1 copy 197" x="260" y="154" width="15" height="15"/>
  <rect id="Rectangle_1_copy_196" data-name="Rectangle 1 copy 196" x="275" y="154" width="15" height="15"/>
  <rect id="Rectangle_1_copy_64" data-name="Rectangle 1 copy 64" x="455" y="154" width="15" height="15"/>
  <rect id="Rectangle_1_copy_65" data-name="Rectangle 1 copy 65" x="365" y="244" width="15" height="15"/>
  <rect id="Rectangle_1_copy_66" data-name="Rectangle 1 copy 66" x="410" y="154" width="15" height="15"/>
  <rect id="Rectangle_1_copy_31" data-name="Rectangle 1 copy 31" x="65" y="184" width="15" height="15"/>
  <rect id="Rectangle_1_copy_32" data-name="Rectangle 1 copy 32" x="200" y="154" width="15" height="15"/>
  <rect id="Rectangle_1_copy_33" data-name="Rectangle 1 copy 33" x="185" y="154" width="15" height="15"/>
  <rect id="Rectangle_1_copy_34" data-name="Rectangle 1 copy 34" x="170" y="154" width="15" height="15"/>
  <rect id="Rectangle_1_copy_35" data-name="Rectangle 1 copy 35" x="155" y="154" width="15" height="15"/>
  <rect id="Rectangle_1_copy_36" data-name="Rectangle 1 copy 36" x="140" y="154" width="15" height="15"/>
  <rect id="Rectangle_1_copy_15-4" data-name="Rectangle 1 copy 15" x="215" y="139" width="15" height="15"/>
  <rect id="Rectangle_1_copy_15-5" data-name="Rectangle 1 copy 15" x="200" y="139" width="15" height="15"/>
  <rect id="Rectangle_1_copy_15-6" data-name="Rectangle 1 copy 15" x="185" y="139" width="15" height="15"/>
  <rect id="Rectangle_1_copy_16" data-name="Rectangle 1 copy 16" x="170" y="139" width="15" height="15"/>
  <rect id="Rectangle_1_copy_16-2" data-name="Rectangle 1 copy 16" x="155" y="139" width="15" height="15"/>
  <rect id="Rectangle_1_copy_16-3" data-name="Rectangle 1 copy 16" x="140" y="139" width="15" height="15"/>
  <rect id="Rectangle_1_copy_37" data-name="Rectangle 1 copy 37" x="125" y="154" width="15" height="15"/>
  <rect id="Rectangle_1_copy_38" data-name="Rectangle 1 copy 38" x="140" y="199" width="15" height="15"/>
  <rect id="Rectangle_1_copy_39" data-name="Rectangle 1 copy 39" x="125" y="214" width="15" height="15"/>
  <rect id="Rectangle_1_copy_40" data-name="Rectangle 1 copy 40" x="80" y="199" width="15" height="15"/>
  <rect id="Rectangle_1_copy_107" data-name="Rectangle 1 copy 107" x="65" y="364" width="15" height="15"/>
  <rect id="Rectangle_1_copy_108" data-name="Rectangle 1 copy 108" x="65" y="379" width="15" height="15"/>
  <rect id="Rectangle_1_copy_109" data-name="Rectangle 1 copy 109" x="65" y="349" width="15" height="15"/>
  <rect id="Rectangle_1_copy_110" data-name="Rectangle 1 copy 110" x="80" y="334" width="15" height="15"/>
  <rect id="Rectangle_1_copy_111" data-name="Rectangle 1 copy 111" x="110" y="304" width="15" height="15"/>
  <rect id="Rectangle_1_copy_112" data-name="Rectangle 1 copy 112" x="125" y="289" width="15" height="15"/>
  <rect id="Rectangle_1_copy_113" data-name="Rectangle 1 copy 113" x="155" y="274" width="15" height="15"/>
  <rect id="Rectangle_1_copy_216" data-name="Rectangle 1 copy 216" x="140" y="274" width="15" height="15"/>
  <rect id="Rectangle_1_copy_228" data-name="Rectangle 1 copy 228" x="170" y="274" width="15" height="15"/>
  <rect id="Rectangle_1_copy_229" data-name="Rectangle 1 copy 229" x="185" y="274" width="15" height="15"/>
  <rect id="Rectangle_1_copy_230" data-name="Rectangle 1 copy 230" x="200" y="274" width="15" height="15"/>
  <rect id="Rectangle_1_copy_231" data-name="Rectangle 1 copy 231" x="215" y="274" width="15" height="15"/>
  <rect id="Rectangle_1_copy_232" data-name="Rectangle 1 copy 232" x="230" y="274" width="15" height="15"/>
  <rect id="Rectangle_1_copy_233" data-name="Rectangle 1 copy 233" x="245" y="274" width="15" height="15"/>
  <rect id="Rectangle_1_copy_234" data-name="Rectangle 1 copy 234" x="260" y="274" width="15" height="15"/>
  <rect id="Rectangle_1_copy_235" data-name="Rectangle 1 copy 235" x="275" y="274" width="15" height="15"/>
  <rect id="Rectangle_1_copy_114" data-name="Rectangle 1 copy 114" x="305" y="154" width="15" height="15"/>
  <rect id="Rectangle_1_copy_115" data-name="Rectangle 1 copy 115" x="320" y="169" width="15" height="15"/>
  <rect id="Rectangle_1_copy_116" data-name="Rectangle 1 copy 116" x="320" y="229" width="15" height="15"/>
  <rect id="Rectangle_1_copy_199" data-name="Rectangle 1 copy 199" x="305" y="244" width="15" height="15"/>
  <rect id="Rectangle_1_copy_117" data-name="Rectangle 1 copy 117" x="290" y="199" width="15" height="15"/>
  <rect id="Rectangle_1_copy_198" data-name="Rectangle 1 copy 198" x="290" y="184" width="15" height="15"/>
  <rect id="Rectangle_1_copy_118" data-name="Rectangle 1 copy 118" x="275" y="259" width="15" height="15"/>
  <rect id="Rectangle_1_copy_203" data-name="Rectangle 1 copy 203" x="260" y="259" width="15" height="15"/>
  <rect id="Rectangle_1_copy_204" data-name="Rectangle 1 copy 204" x="245" y="259" width="15" height="15"/>
  <rect id="Rectangle_1_copy_205" data-name="Rectangle 1 copy 205" x="230" y="259" width="15" height="15"/>
  <rect id="Rectangle_1_copy_206" data-name="Rectangle 1 copy 206" x="215" y="259" width="15" height="15"/>
  <rect id="Rectangle_1_copy_207" data-name="Rectangle 1 copy 207" x="200" y="259" width="15" height="15"/>
  <rect id="Rectangle_1_copy_208" data-name="Rectangle 1 copy 208" x="185" y="259" width="15" height="15"/>
  <rect id="Rectangle_1_copy_209" data-name="Rectangle 1 copy 209" x="170" y="259" width="15" height="15"/>
  <rect id="Rectangle_1_copy_210" data-name="Rectangle 1 copy 210" x="155" y="259" width="15" height="15"/>
  <rect id="Rectangle_1_copy_211" data-name="Rectangle 1 copy 211" x="140" y="259" width="15" height="15"/>
  <rect id="Rectangle_1_copy_119" data-name="Rectangle 1 copy 119" x="290" y="154" width="15" height="15"/>
  <rect id="Rectangle_1_copy_120" data-name="Rectangle 1 copy 120" x="245" y="184" width="15" height="15"/>
  <rect id="Rectangle_1_copy_121" data-name="Rectangle 1 copy 121" x="260" y="199" width="15" height="15"/>
  <rect id="Rectangle_1_copy_122" data-name="Rectangle 1 copy 122" x="275" y="199" width="15" height="15"/>
  <rect id="Rectangle_1_copy_100" data-name="Rectangle 1 copy 100" x="95" y="214" width="15" height="15"/>
  <rect id="Rectangle_1_copy_101" data-name="Rectangle 1 copy 101" x="110" y="214" width="15" height="15"/>
  <rect id="Rectangle_1_copy_105" data-name="Rectangle 1 copy 105" x="95" y="229" width="15" height="15"/>
  <rect id="Rectangle_1_copy_102" data-name="Rectangle 1 copy 102" x="95" y="244" width="15" height="15"/>
  <rect id="Rectangle_1_copy_213" data-name="Rectangle 1 copy 213" x="80" y="259" width="15" height="15"/>
  <rect id="Rectangle_1_copy_103" data-name="Rectangle 1 copy 103" x="110" y="229" width="15" height="15"/>
  <rect id="Rectangle_1_copy_104" data-name="Rectangle 1 copy 104" x="125" y="244" width="15" height="15"/>
  <rect id="Rectangle_1_copy_16-4" data-name="Rectangle 1 copy 16" x="125" y="139" width="15" height="15"/>
  <rect id="Rectangle_1_copy_16-5" data-name="Rectangle 1 copy 16" x="110" y="139" width="15" height="15"/>
  <rect id="Rectangle_1_copy_16-6" data-name="Rectangle 1 copy 16" x="95" y="139" width="15" height="15"/>
  <rect id="Rectangle_1_copy_17" data-name="Rectangle 1 copy 17" x="80" y="139" width="15" height="15"/>
  <rect id="Rectangle_1_copy_18" data-name="Rectangle 1 copy 18" x="65" y="139" width="15" height="15"/>
  <rect id="Rectangle_1_copy_19" data-name="Rectangle 1 copy 19" x="50" y="139" width="15" height="15"/>
  <rect id="Rectangle_1_copy_123" data-name="Rectangle 1 copy 123" x="50" y="154" width="15" height="15"/>
  <rect id="Rectangle_1_copy_124" data-name="Rectangle 1 copy 124" x="50" y="169" width="15" height="15"/>
  <rect id="Rectangle_1_copy_125" data-name="Rectangle 1 copy 125" x="50" y="184" width="15" height="15"/>
  <rect id="Rectangle_1_copy_126" data-name="Rectangle 1 copy 126" x="50" y="199" width="15" height="15"/>
  <rect id="Rectangle_1_copy_127" data-name="Rectangle 1 copy 127" x="50" y="214" width="15" height="15"/>
  <rect id="Rectangle_1_copy_128" data-name="Rectangle 1 copy 128" x="50" y="229" width="15" height="15"/>
  <rect id="Rectangle_1_copy_129" data-name="Rectangle 1 copy 129" x="50" y="244" width="15" height="15"/>
  <rect id="Rectangle_1_copy_130" data-name="Rectangle 1 copy 130" x="50" y="259" width="15" height="15"/>
  <rect id="Rectangle_1_copy_131" data-name="Rectangle 1 copy 131" x="50" y="274" width="15" height="15"/>
  <rect id="Rectangle_1_copy_132" data-name="Rectangle 1 copy 132" x="50" y="289" width="15" height="15"/>
  <rect id="Rectangle_1_copy_133" data-name="Rectangle 1 copy 133" x="50" y="304" width="15" height="15"/>
  <rect id="Rectangle_1_copy_134" data-name="Rectangle 1 copy 134" x="50" y="319" width="15" height="15"/>
  <rect id="Rectangle_1_copy_135" data-name="Rectangle 1 copy 135" x="50" y="334" width="15" height="15"/>
  <rect id="Rectangle_1_copy_136" data-name="Rectangle 1 copy 136" x="50" y="349" width="15" height="15"/>
  <rect id="Rectangle_1_copy_137" data-name="Rectangle 1 copy 137" x="50" y="364" width="15" height="15"/>
  <rect id="Rectangle_1_copy_138" data-name="Rectangle 1 copy 138" x="50" y="379" width="15" height="15"/>
  <rect id="Rectangle_1_copy_139" data-name="Rectangle 1 copy 139" x="50" y="394" width="15" height="15"/>
  <rect id="Rectangle_1_copy_140" data-name="Rectangle 1 copy 140" x="50" y="409" width="15" height="15"/>
  <rect id="Rectangle_1_copy_141" data-name="Rectangle 1 copy 141" x="50" y="424" width="15" height="15"/>
  <rect id="Rectangle_1_copy_142" data-name="Rectangle 1 copy 142" x="50" y="439" width="15" height="15"/>
  <rect id="Rectangle_1_copy_143" data-name="Rectangle 1 copy 143" x="50" y="454" width="15" height="15"/>
  <rect id="Rectangle_1_copy_144" data-name="Rectangle 1 copy 144" x="50" y="469" width="15" height="15"/>
  <rect id="Rectangle_1_copy_145" data-name="Rectangle 1 copy 145" x="50" y="484" width="15" height="15"/>
  <rect id="Rectangle_1_copy_146" data-name="Rectangle 1 copy 146" x="50" y="499" width="15" height="15"/>
  <rect id="Rectangle_1_copy_147" data-name="Rectangle 1 copy 147" x="50" y="514" width="15" height="15"/>
  <rect id="Rectangle_1_copy_148" data-name="Rectangle 1 copy 148" x="50" y="529" width="15" height="15"/>
  <rect id="Rectangle_1_copy_149" data-name="Rectangle 1 copy 149" x="50" y="544" width="15" height="15"/>
  <rect id="Rectangle_1_copy_151" data-name="Rectangle 1 copy 151" x="50" y="559" width="15" height="15"/>
  <rect id="Rectangle_1_copy_154" data-name="Rectangle 1 copy 154" x="50" y="574" width="15" height="15"/>
  <rect id="Rectangle_1_copy_156" data-name="Rectangle 1 copy 156" x="50" y="589" width="15" height="15"/>
  <rect id="Rectangle_1_copy_158" data-name="Rectangle 1 copy 158" x="50" y="604" width="15" height="15"/>
  <rect id="Rectangle_1_copy_160" data-name="Rectangle 1 copy 160" x="50" y="619" width="15" height="15"/>
  <rect id="Rectangle_1_copy_162" data-name="Rectangle 1 copy 162" x="50" y="634" width="15" height="15"/>
  <rect id="Rectangle_1_copy_163" data-name="Rectangle 1 copy 163" x="50" y="649" width="15" height="15"/>
  <rect id="Rectangle_1_copy_164" data-name="Rectangle 1 copy 164" x="50" y="664" width="15" height="15"/>
  <rect id="Rectangle_1_copy_165" data-name="Rectangle 1 copy 165" x="50" y="679" width="15" height="15"/>
  <rect id="Rectangle_1_copy_166" data-name="Rectangle 1 copy 166" x="50" y="694" width="15" height="15"/>
  <rect id="Rectangle_1_copy_167" data-name="Rectangle 1 copy 167" x="50" y="709" width="15" height="15"/>
  <rect id="Rectangle_1_copy_168" data-name="Rectangle 1 copy 168" x="50" y="724" width="15" height="15"/>
  <rect id="Rectangle_1_copy_260" data-name="Rectangle 1 copy 260" x="35" y="724" width="15" height="15"/>
  <rect id="Rectangle_1_copy_173" data-name="Rectangle 1 copy 173" x="95" y="469" width="15" height="15"/>
  <rect id="Rectangle_1_copy_250" data-name="Rectangle 1 copy 250" x="215" y="379" width="15" height="15"/>
  <rect id="Rectangle_1_copy_250-2" data-name="Rectangle 1 copy 250" x="215" y="394" width="15" height="15"/>
  <rect id="Rectangle_1_copy_250-3" data-name="Rectangle 1 copy 250" x="245" y="409" width="15" height="15"/>
  <rect id="Rectangle_1_copy_266" data-name="Rectangle 1 copy 266" x="230" y="409" width="15" height="15"/>
  <rect id="Rectangle_1_copy_250-4" data-name="Rectangle 1 copy 250" x="260" y="409" width="15" height="15"/>
  <rect id="Rectangle_1_copy_264" data-name="Rectangle 1 copy 264" x="245" y="364" width="15" height="15"/>
  <rect id="Rectangle_1_copy_250-5" data-name="Rectangle 1 copy 250" x="230" y="289" width="15" height="15"/>
  <rect id="Rectangle_1_copy_263" data-name="Rectangle 1 copy 263" x="215" y="289" width="15" height="15"/>
  <rect id="Rectangle_1_copy_250-6" data-name="Rectangle 1 copy 250" x="230" y="364" width="15" height="15"/>
  <rect id="Rectangle_1_copy_250-7" data-name="Rectangle 1 copy 250" x="275" y="364" width="15" height="15"/>
  <rect id="Rectangle_1_copy_250-8" data-name="Rectangle 1 copy 250" x="275" y="349" width="15" height="15"/>
  <rect id="Rectangle_1_copy_250-9" data-name="Rectangle 1 copy 250" x="275" y="379" width="15" height="15"/>
  <rect id="Rectangle_1_copy_265" data-name="Rectangle 1 copy 265" x="275" y="394" width="15" height="15"/>
  <rect id="Rectangle_1_copy_174" data-name="Rectangle 1 copy 174" x="80" y="484" width="15" height="15"/>
  <rect id="Rectangle_1_copy_212" data-name="Rectangle 1 copy 212" x="96" y="499" width="15" height="15"/>
  <rect id="Rectangle_1_copy_214" data-name="Rectangle 1 copy 214" x="111" y="514" width="15" height="15"/>
  <rect id="Rectangle_1_copy_227" data-name="Rectangle 1 copy 227" x="111" y="529" width="15" height="15"/>
  <rect id="Rectangle_1_copy_215" data-name="Rectangle 1 copy 215" x="125" y="529" width="15" height="15"/>
  <rect id="Rectangle_1_copy_226" data-name="Rectangle 1 copy 226" x="140" y="544" width="15" height="15"/>
  <rect id="Rectangle_1_copy_217" data-name="Rectangle 1 copy 217" x="155" y="544" width="15" height="15"/>
  <rect id="Rectangle_1_copy_218" data-name="Rectangle 1 copy 218" x="170" y="544" width="15" height="15"/>
  <rect id="Rectangle_1_copy_219" data-name="Rectangle 1 copy 219" x="185" y="544" width="15" height="15"/>
  <rect id="Rectangle_1_copy_220" data-name="Rectangle 1 copy 220" x="200" y="544" width="15" height="15"/>
  <rect id="Rectangle_1_copy_221" data-name="Rectangle 1 copy 221" x="215" y="544" width="15" height="15"/>
  <rect id="Rectangle_1_copy_222" data-name="Rectangle 1 copy 222" x="230" y="544" width="15" height="15"/>
  <rect id="Rectangle_1_copy_223" data-name="Rectangle 1 copy 223" x="245" y="544" width="15" height="15"/>
  <rect id="Rectangle_1_copy_236" data-name="Rectangle 1 copy 236" x="260" y="544" width="15" height="15"/>
  <rect id="Rectangle_1_copy_237" data-name="Rectangle 1 copy 237" x="275" y="544" width="15" height="15"/>
  <rect id="Rectangle_1_copy_238" data-name="Rectangle 1 copy 238" x="290" y="544" width="15" height="15"/>
  <rect id="Rectangle_1_copy_239" data-name="Rectangle 1 copy 239" x="305" y="529" width="15" height="15"/>
  <rect id="Rectangle_1_copy_240" data-name="Rectangle 1 copy 240" x="320" y="514" width="15" height="15"/>
  <rect id="Rectangle_1_copy_241" data-name="Rectangle 1 copy 241" x="335" y="499" width="15" height="15"/>
  <rect id="Rectangle_1_copy_242" data-name="Rectangle 1 copy 242" x="350" y="484" width="15" height="15"/>
  <rect id="Rectangle_1_copy_243" data-name="Rectangle 1 copy 243" x="365" y="454" width="15" height="15"/>
  <rect id="Rectangle_1_copy_261" data-name="Rectangle 1 copy 261" x="365" y="469" width="15" height="15"/>
  <rect id="Rectangle_1_copy_244" data-name="Rectangle 1 copy 244" x="365" y="439" width="15" height="15"/>
  <rect id="Rectangle_1_copy_245" data-name="Rectangle 1 copy 245" x="365" y="424" width="15" height="15"/>
  <rect id="Rectangle_1_copy_246" data-name="Rectangle 1 copy 246" x="365" y="409" width="15" height="15"/>
  <rect id="Rectangle_1_copy_247" data-name="Rectangle 1 copy 247" x="365" y="394" width="15" height="15"/>
  <rect id="Rectangle_1_copy_248" data-name="Rectangle 1 copy 248" x="365" y="379" width="15" height="15"/>
  <rect id="Rectangle_1_copy_249" data-name="Rectangle 1 copy 249" x="365" y="364" width="15" height="15"/>
  <rect id="Rectangle_1_copy_251" data-name="Rectangle 1 copy 251" x="365" y="349" width="15" height="15"/>
  <rect id="Rectangle_1_copy_252" data-name="Rectangle 1 copy 252" x="350" y="334" width="15" height="15"/>
  <rect id="Rectangle_1_copy_253" data-name="Rectangle 1 copy 253" x="335" y="319" width="15" height="15"/>
  <rect id="Rectangle_1_copy_254" data-name="Rectangle 1 copy 254" x="320" y="304" width="15" height="15"/>
  <rect id="Rectangle_1_copy_255" data-name="Rectangle 1 copy 255" x="275" y="334" width="15" height="15"/>
  <rect id="Rectangle_1_copy_258" data-name="Rectangle 1 copy 258" x="260" y="319" width="15" height="15"/>
  <rect id="Rectangle_1_copy_259" data-name="Rectangle 1 copy 259" x="245" y="304" width="15" height="15"/>
  <rect id="Rectangle_1_copy_257" data-name="Rectangle 1 copy 257" x="305" y="289" width="15" height="15"/>
  <rect id="Rectangle_1_copy_262" data-name="Rectangle 1 copy 262" x="290" y="274" width="15" height="15"/>
  <rect id="Rectangle_1_copy_157" data-name="Rectangle 1 copy 157" x="155" y="604" width="15" height="15"/>
  <rect id="Rectangle_1_copy_159" data-name="Rectangle 1 copy 159" x="95" y="604" width="15" height="15"/>
  <rect id="Rectangle_1_copy_161" data-name="Rectangle 1 copy 161" x="65" y="619" width="15" height="15"/>
  <rect id="Rectangle_1_copy_175" data-name="Rectangle 1 copy 175" x="80" y="604" width="15" height="15"/>
  <rect id="Rectangle_1_copy_176" data-name="Rectangle 1 copy 176" x="110" y="619" width="15" height="15"/>
  <rect id="Rectangle_1_copy_177" data-name="Rectangle 1 copy 177" x="95" y="634" width="15" height="15"/>
  <rect id="Rectangle_1_copy_178" data-name="Rectangle 1 copy 178" x="65" y="649" width="15" height="15"/>
  <rect id="Rectangle_1_copy_179" data-name="Rectangle 1 copy 179" x="80" y="664" width="15" height="15"/>
  <rect id="Rectangle_1_copy_180" data-name="Rectangle 1 copy 180" x="95" y="664" width="15" height="15"/>
  <rect id="Rectangle_1_copy_181" data-name="Rectangle 1 copy 181" x="110" y="664" width="15" height="15"/>
  <rect id="Rectangle_1_copy_182" data-name="Rectangle 1 copy 182" x="125" y="664" width="15" height="15"/>
  <rect id="Rectangle_1_copy_183" data-name="Rectangle 1 copy 183" x="140" y="649" width="15" height="15"/>
  <rect id="Rectangle_1_copy_184" data-name="Rectangle 1 copy 184" x="155" y="634" width="15" height="15"/>
  <rect id="Rectangle_1_copy_185" data-name="Rectangle 1 copy 185" x="155" y="619" width="15" height="15"/>
  <rect id="Rectangle_1_copy_186" data-name="Rectangle 1 copy 186" x="65" y="634" width="15" height="15"/>
  <rect id="Rectangle_1_copy_150" data-name="Rectangle 1 copy 150" x="140" y="559" width="15" height="15"/>
  <rect id="Rectangle_1_copy_152" data-name="Rectangle 1 copy 152" x="155" y="574" width="15" height="15"/>
  <rect id="Rectangle_1_copy_153" data-name="Rectangle 1 copy 153" x="155" y="589" width="15" height="15"/>
  <rect id="Rectangle_1_copy_2" data-name="Rectangle 1 copy 2" x="485" y="169" width="15" height="15"/>
</svg>
