<svg xmlns="http://www.w3.org/2000/svg" width="267" height="241" viewBox="0 0 267 241">
  <rect id="Rectangle_1_copy_35" data-name="Rectangle 1 copy 35" x="33" y="88" width="15" height="15"/>
  <rect id="Rectangle_1_copy_36" data-name="Rectangle 1 copy 36" x="48" y="88" width="15" height="15"/>
  <rect id="Rectangle_1_copy_37" data-name="Rectangle 1 copy 37" x="48" y="73" width="15" height="15"/>
  <rect id="Rectangle_1_copy_38" data-name="Rectangle 1 copy 38" x="33" y="58" width="15" height="15"/>
  <rect id="Rectangle_1_copy_39" data-name="Rectangle 1 copy 39" x="18" y="43" width="15" height="15"/>
  <rect id="Rectangle_1_copy_40" data-name="Rectangle 1 copy 40" x="18" y="28" width="15" height="15"/>
  <rect id="Rectangle_1_copy_41" data-name="Rectangle 1 copy 41" x="33" y="13" width="15" height="15"/>
  <rect id="Rectangle_1_copy_42" data-name="Rectangle 1 copy 42" x="48" y="13" width="15" height="15"/>
  <rect id="Rectangle_1_copy_43" data-name="Rectangle 1 copy 43" x="63" y="13" width="15" height="15"/>
  <rect id="Rectangle_1_copy_44" data-name="Rectangle 1 copy 44" x="78" y="28" width="15" height="15"/>
  <rect id="Rectangle_1_copy_46" data-name="Rectangle 1 copy 46" x="78" y="43" width="15" height="15"/>
  <rect id="Rectangle_1_copy_45" data-name="Rectangle 1 copy 45" x="78" y="58" width="15" height="15"/>
  <rect id="Rectangle_1_copy_47" data-name="Rectangle 1 copy 47" x="78" y="73" width="15" height="15"/>
  <rect id="Rectangle_1_copy_48" data-name="Rectangle 1 copy 48" x="78" y="88" width="15" height="15"/>
  <rect id="Rectangle_1_copy_49" data-name="Rectangle 1 copy 49" x="78" y="103" width="15" height="15"/>
  <rect id="Rectangle_1_copy_50" data-name="Rectangle 1 copy 50" x="63" y="118" width="15" height="15"/>
  <rect id="Rectangle_1_copy_51" data-name="Rectangle 1 copy 51" x="33" y="148" width="15" height="15"/>
  <rect id="Rectangle_1_copy_53" data-name="Rectangle 1 copy 53" x="18" y="163" width="15" height="15"/>
  <rect id="Rectangle_1_copy_54" data-name="Rectangle 1 copy 54" x="18" y="178" width="15" height="15"/>
  <rect id="Rectangle_1_copy_92" data-name="Rectangle 1 copy 92" x="18" y="193" width="15" height="15"/>
  <rect id="Rectangle_1_copy_55" data-name="Rectangle 1 copy 55" x="33" y="193" width="15" height="15"/>
  <rect id="Rectangle_1_copy_72" data-name="Rectangle 1 copy 72" x="63" y="207" width="15" height="15"/>
  <rect id="Rectangle_1_copy_93" data-name="Rectangle 1 copy 93" x="48" y="207" width="15" height="15"/>
  <rect id="Rectangle_1_copy_73" data-name="Rectangle 1 copy 73" x="78" y="192" width="15" height="15"/>
  <rect id="Rectangle_1_copy_74" data-name="Rectangle 1 copy 74" x="93" y="177" width="15" height="15"/>
  <rect id="Rectangle_1_copy_75" data-name="Rectangle 1 copy 75" x="108" y="162" width="15" height="15"/>
  <rect id="Rectangle_1_copy_76" data-name="Rectangle 1 copy 76" x="123" y="162" width="15" height="15"/>
  <rect id="Rectangle_1_copy_77" data-name="Rectangle 1 copy 77" x="138" y="162" width="15" height="15"/>
  <rect id="Rectangle_1_copy_78" data-name="Rectangle 1 copy 78" x="153" y="162" width="15" height="15"/>
  <rect id="Rectangle_1_copy_79" data-name="Rectangle 1 copy 79" x="168" y="162" width="15" height="15"/>
  <rect id="Rectangle_1_copy_80" data-name="Rectangle 1 copy 80" x="183" y="162" width="15" height="15"/>
  <rect id="Rectangle_1_copy_81" data-name="Rectangle 1 copy 81" x="198" y="162" width="15" height="15"/>
  <rect id="Rectangle_1_copy_82" data-name="Rectangle 1 copy 82" x="213" y="162" width="15" height="15"/>
  <rect id="Rectangle_1_copy_83" data-name="Rectangle 1 copy 83" x="228" y="177" width="15" height="15"/>
  <rect id="Rectangle_1_copy_84" data-name="Rectangle 1 copy 84" x="228" y="192" width="15" height="15"/>
  <rect id="Rectangle_1_copy_85" data-name="Rectangle 1 copy 85" x="213" y="207" width="15" height="15"/>
  <rect id="Rectangle_1_copy_86" data-name="Rectangle 1 copy 86" x="198" y="207" width="15" height="15"/>
  <rect id="Rectangle_1_copy_87" data-name="Rectangle 1 copy 87" x="183" y="207" width="15" height="15"/>
  <rect id="Rectangle_1_copy_88" data-name="Rectangle 1 copy 88" x="168" y="192" width="15" height="15"/>
  <rect id="Rectangle_1_copy_89" data-name="Rectangle 1 copy 89" x="153" y="192" width="15" height="15"/>
  <rect id="Rectangle_1_copy_90" data-name="Rectangle 1 copy 90" x="138" y="192" width="15" height="15"/>
  <rect id="Rectangle_1_copy_91" data-name="Rectangle 1 copy 91" x="138" y="207" width="15" height="15"/>
  <rect id="Rectangle_1_copy_56" data-name="Rectangle 1 copy 56" x="48" y="178" width="15" height="15"/>
  <rect id="Rectangle_1_copy_57" data-name="Rectangle 1 copy 57" x="63" y="163" width="15" height="15"/>
  <rect id="Rectangle_1_copy_58" data-name="Rectangle 1 copy 58" x="78" y="148" width="15" height="15"/>
  <rect id="Rectangle_1_copy_59" data-name="Rectangle 1 copy 59" x="93" y="133" width="15" height="15"/>
  <rect id="Rectangle_1_copy_60" data-name="Rectangle 1 copy 60" x="108" y="118" width="15" height="15"/>
  <rect id="Rectangle_1_copy_61" data-name="Rectangle 1 copy 61" x="123" y="103" width="15" height="15"/>
  <rect id="Rectangle_1_copy_62" data-name="Rectangle 1 copy 62" x="138" y="88" width="15" height="15"/>
  <rect id="Rectangle_1_copy_63" data-name="Rectangle 1 copy 63" x="153" y="73" width="15" height="15"/>
  <rect id="Rectangle_1_copy_64" data-name="Rectangle 1 copy 64" x="153" y="58" width="15" height="15"/>
  <rect id="Rectangle_1_copy_65" data-name="Rectangle 1 copy 65" x="138" y="43" width="15" height="15"/>
  <rect id="Rectangle_1_copy_66" data-name="Rectangle 1 copy 66" x="138" y="28" width="15" height="15"/>
  <rect id="Rectangle_1_copy_67" data-name="Rectangle 1 copy 67" x="138" y="13" width="15" height="15"/>
  <rect id="Rectangle_1_copy_68" data-name="Rectangle 1 copy 68" x="153" y="13" width="15" height="15"/>
  <rect id="Rectangle_1_copy_69" data-name="Rectangle 1 copy 69" x="168" y="28" width="15" height="15"/>
  <rect id="Rectangle_1_copy_71" data-name="Rectangle 1 copy 71" x="183" y="28" width="15" height="15"/>
  <rect id="Rectangle_1_copy_70" data-name="Rectangle 1 copy 70" x="168" y="43" width="15" height="15"/>
  <rect id="Rectangle_1_copy_52" data-name="Rectangle 1 copy 52" x="48" y="133" width="15" height="15"/>
</svg>
