<svg xmlns="http://www.w3.org/2000/svg" width="1303" height="234" viewBox="0 0 1303 234">
  <rect x="643" y="72" width="15" height="15"/>
  <rect id="Rectangle_1_copy_32" data-name="Rectangle 1 copy 32" x="643" y="87" width="15" height="15"/>
  <rect id="Rectangle_1_copy_166" data-name="Rectangle 1 copy 166" x="643" y="102" width="15" height="15"/>
  <rect id="Rectangle_1_copy_167" data-name="Rectangle 1 copy 167" x="628" y="117" width="15" height="15"/>
  <rect id="Rectangle_1_copy_168" data-name="Rectangle 1 copy 168" x="613" y="132" width="15" height="15"/>
  <rect id="Rectangle_1_copy_169" data-name="Rectangle 1 copy 169" x="598" y="147" width="15" height="15"/>
  <rect id="Rectangle_1_copy_170" data-name="Rectangle 1 copy 170" x="583" y="162" width="15" height="15"/>
  <rect id="Rectangle_1_copy_171" data-name="Rectangle 1 copy 171" x="583" y="177" width="15" height="15"/>
  <rect id="Rectangle_1_copy_181" data-name="Rectangle 1 copy 181" x="583" y="192" width="15" height="15"/>
  <rect id="Rectangle_1_copy_182" data-name="Rectangle 1 copy 182" x="583" y="207" width="15" height="15"/>
  <rect id="Rectangle_1_copy_173" data-name="Rectangle 1 copy 173" x="613" y="177" width="15" height="15"/>
  <rect id="Rectangle_1_copy_183" data-name="Rectangle 1 copy 183" x="598" y="192" width="15" height="15"/>
  <rect id="Rectangle_1_copy_174" data-name="Rectangle 1 copy 174" x="628" y="162" width="15" height="15"/>
  <rect id="Rectangle_1_copy_175" data-name="Rectangle 1 copy 175" x="643" y="162" width="15" height="15"/>
  <rect id="Rectangle_1_copy_176" data-name="Rectangle 1 copy 176" x="658" y="162" width="15" height="15"/>
  <rect id="Rectangle_1_copy_177" data-name="Rectangle 1 copy 177" x="673" y="162" width="15" height="15"/>
  <rect id="Rectangle_1_copy_178" data-name="Rectangle 1 copy 178" x="688" y="177" width="15" height="15"/>
  <rect id="Rectangle_1_copy_179" data-name="Rectangle 1 copy 179" x="703" y="177" width="15" height="15"/>
  <rect id="Rectangle_1_copy_180" data-name="Rectangle 1 copy 180" x="718" y="192" width="15" height="15"/>
  <rect id="Rectangle_1_copy_184" data-name="Rectangle 1 copy 184" x="703" y="207" width="15" height="15"/>
  <rect id="Rectangle_1_copy_185" data-name="Rectangle 1 copy 185" x="688" y="207" width="15" height="15"/>
  <rect id="Rectangle_1_copy_186" data-name="Rectangle 1 copy 186" x="673" y="207" width="15" height="15"/>
  <rect id="Rectangle_1_copy_187" data-name="Rectangle 1 copy 187" x="658" y="192" width="15" height="15"/>
  <rect id="Rectangle_1_copy_34" data-name="Rectangle 1 copy 34" x="628" y="87" width="15" height="15"/>
  <rect id="Rectangle_1_copy_33" data-name="Rectangle 1 copy 33" x="658" y="87" width="15" height="15"/>
  <rect id="Rectangle_1_copy_2" data-name="Rectangle 1 copy 2" x="643" y="57" width="15" height="15"/>
  <rect id="Rectangle_1_copy_3" data-name="Rectangle 1 copy 3" x="628" y="57" width="15" height="15"/>
  <rect id="Rectangle_1_copy_4" data-name="Rectangle 1 copy 4" x="628" y="42" width="15" height="15"/>
  <rect id="Rectangle_1_copy_5" data-name="Rectangle 1 copy 5" x="628" y="27" width="15" height="15"/>
  <rect id="Rectangle_1_copy_6" data-name="Rectangle 1 copy 6" x="613" y="12" width="15" height="15"/>
  <rect id="Rectangle_1_copy_8" data-name="Rectangle 1 copy 8" x="598" y="12" width="15" height="15"/>
  <rect id="Rectangle_1_copy_9" data-name="Rectangle 1 copy 9" x="583" y="12" width="15" height="15"/>
  <rect id="Rectangle_1_copy_10" data-name="Rectangle 1 copy 10" x="568" y="12" width="15" height="15"/>
  <rect id="Rectangle_1_copy_11" data-name="Rectangle 1 copy 11" x="553" y="27" width="15" height="15"/>
  <rect id="Rectangle_1_copy_12" data-name="Rectangle 1 copy 12" x="553" y="42" width="15" height="15"/>
  <rect id="Rectangle_1_copy_13" data-name="Rectangle 1 copy 13" x="568" y="57" width="15" height="15"/>
  <rect id="Rectangle_1_copy_14" data-name="Rectangle 1 copy 14" x="583" y="72" width="15" height="15"/>
  <rect id="Rectangle_1_copy_16" data-name="Rectangle 1 copy 16" x="583" y="87" width="15" height="15"/>
  <rect id="Rectangle_1_copy_15" data-name="Rectangle 1 copy 15" x="583" y="102" width="15" height="15"/>
  <rect id="Rectangle_1_copy_17" data-name="Rectangle 1 copy 17" x="583" y="117" width="15" height="15"/>
  <rect id="Rectangle_1_copy_18" data-name="Rectangle 1 copy 18" x="568" y="102" width="15" height="15"/>
  <rect id="Rectangle_1_copy_35" data-name="Rectangle 1 copy 35" x="28" y="87" width="15" height="15"/>
  <rect id="Rectangle_1_copy_36" data-name="Rectangle 1 copy 36" x="43" y="87" width="15" height="15"/>
  <rect id="Rectangle_1_copy_37" data-name="Rectangle 1 copy 37" x="43" y="72" width="15" height="15"/>
  <rect id="Rectangle_1_copy_38" data-name="Rectangle 1 copy 38" x="28" y="57" width="15" height="15"/>
  <rect id="Rectangle_1_copy_39" data-name="Rectangle 1 copy 39" x="13" y="42" width="15" height="15"/>
  <rect id="Rectangle_1_copy_40" data-name="Rectangle 1 copy 40" x="13" y="27" width="15" height="15"/>
  <rect id="Rectangle_1_copy_41" data-name="Rectangle 1 copy 41" x="28" y="12" width="15" height="15"/>
  <rect id="Rectangle_1_copy_42" data-name="Rectangle 1 copy 42" x="43" y="12" width="15" height="15"/>
  <rect id="Rectangle_1_copy_43" data-name="Rectangle 1 copy 43" x="58" y="12" width="15" height="15"/>
  <rect id="Rectangle_1_copy_44" data-name="Rectangle 1 copy 44" x="73" y="27" width="15" height="15"/>
  <rect id="Rectangle_1_copy_46" data-name="Rectangle 1 copy 46" x="73" y="42" width="15" height="15"/>
  <rect id="Rectangle_1_copy_45" data-name="Rectangle 1 copy 45" x="73" y="57" width="15" height="15"/>
  <rect id="Rectangle_1_copy_47" data-name="Rectangle 1 copy 47" x="73" y="72" width="15" height="15"/>
  <rect id="Rectangle_1_copy_48" data-name="Rectangle 1 copy 48" x="73" y="87" width="15" height="15"/>
  <rect id="Rectangle_1_copy_49" data-name="Rectangle 1 copy 49" x="73" y="102" width="15" height="15"/>
  <rect id="Rectangle_1_copy_50" data-name="Rectangle 1 copy 50" x="58" y="117" width="15" height="15"/>
  <rect id="Rectangle_1_copy_51" data-name="Rectangle 1 copy 51" x="28" y="147" width="15" height="15"/>
  <rect id="Rectangle_1_copy_53" data-name="Rectangle 1 copy 53" x="13" y="162" width="15" height="15"/>
  <rect id="Rectangle_1_copy_54" data-name="Rectangle 1 copy 54" x="13" y="177" width="15" height="15"/>
  <rect id="Rectangle_1_copy_92" data-name="Rectangle 1 copy 92" x="13" y="192" width="15" height="15"/>
  <rect id="Rectangle_1_copy_55" data-name="Rectangle 1 copy 55" x="28" y="192" width="15" height="15"/>
  <rect id="Rectangle_1_copy_72" data-name="Rectangle 1 copy 72" x="58" y="207" width="15" height="15"/>
  <rect id="Rectangle_1_copy_93" data-name="Rectangle 1 copy 93" x="43" y="207" width="15" height="15"/>
  <rect id="Rectangle_1_copy_73" data-name="Rectangle 1 copy 73" x="73" y="192" width="15" height="15"/>
  <rect id="Rectangle_1_copy_74" data-name="Rectangle 1 copy 74" x="88" y="177" width="15" height="15"/>
  <rect id="Rectangle_1_copy_75" data-name="Rectangle 1 copy 75" x="103" y="162" width="15" height="15"/>
  <rect id="Rectangle_1_copy_94" data-name="Rectangle 1 copy 94" x="118" y="147" width="15" height="15"/>
  <rect id="Rectangle_1_copy_95" data-name="Rectangle 1 copy 95" x="133" y="132" width="15" height="15"/>
  <rect id="Rectangle_1_copy_96" data-name="Rectangle 1 copy 96" x="148" y="117" width="15" height="15"/>
  <rect id="Rectangle_1_copy_97" data-name="Rectangle 1 copy 97" x="163" y="102" width="15" height="15"/>
  <rect id="Rectangle_1_copy_98" data-name="Rectangle 1 copy 98" x="178" y="87" width="15" height="15"/>
  <rect id="Rectangle_1_copy_100" data-name="Rectangle 1 copy 100" x="178" y="87" width="15" height="15"/>
  <rect id="Rectangle_1_copy_101" data-name="Rectangle 1 copy 101" x="193" y="72" width="15" height="15"/>
  <rect id="Rectangle_1_copy_102" data-name="Rectangle 1 copy 102" x="208" y="57" width="15" height="15"/>
  <rect id="Rectangle_1_copy_103" data-name="Rectangle 1 copy 103" x="223" y="42" width="15" height="15"/>
  <rect id="Rectangle_1_copy_104" data-name="Rectangle 1 copy 104" x="238" y="27" width="15" height="15"/>
  <rect id="Rectangle_1_copy_105" data-name="Rectangle 1 copy 105" x="253" y="27" width="15" height="15"/>
  <rect id="Rectangle_1_copy_106" data-name="Rectangle 1 copy 106" x="268" y="27" width="15" height="15"/>
  <rect id="Rectangle_1_copy_114" data-name="Rectangle 1 copy 114" x="268" y="27" width="15" height="15"/>
  <rect id="Rectangle_1_copy_107" data-name="Rectangle 1 copy 107" x="283" y="27" width="15" height="15"/>
  <rect id="Rectangle_1_copy_109" data-name="Rectangle 1 copy 109" x="283" y="42" width="15" height="15"/>
  <rect id="Rectangle_1_copy_110" data-name="Rectangle 1 copy 110" x="298" y="57" width="15" height="15"/>
  <rect id="Rectangle_1_copy_115" data-name="Rectangle 1 copy 115" x="313" y="72" width="15" height="15"/>
  <rect id="Rectangle_1_copy_116" data-name="Rectangle 1 copy 116" x="328" y="87" width="15" height="15"/>
  <rect id="Rectangle_1_copy_117" data-name="Rectangle 1 copy 117" x="343" y="102" width="15" height="15"/>
  <rect id="Rectangle_1_copy_118" data-name="Rectangle 1 copy 118" x="373" y="132" width="15" height="15"/>
  <rect id="Rectangle_1_copy_119" data-name="Rectangle 1 copy 119" x="388" y="147" width="15" height="15"/>
  <rect id="Rectangle_1_copy_120" data-name="Rectangle 1 copy 120" x="403" y="162" width="15" height="15"/>
  <rect id="Rectangle_1_copy_157" data-name="Rectangle 1 copy 157" x="403" y="192" width="15" height="15"/>
  <rect id="Rectangle_1_copy_158" data-name="Rectangle 1 copy 158" x="433" y="162" width="15" height="15"/>
  <rect id="Rectangle_1_copy_159" data-name="Rectangle 1 copy 159" x="388" y="192" width="15" height="15"/>
  <rect id="Rectangle_1_copy_160" data-name="Rectangle 1 copy 160" x="373" y="192" width="15" height="15"/>
  <rect id="Rectangle_1_copy_161" data-name="Rectangle 1 copy 161" x="373" y="177" width="15" height="15"/>
  <rect id="Rectangle_1_copy_123" data-name="Rectangle 1 copy 123" x="418" y="177" width="15" height="15"/>
  <rect id="Rectangle_1_copy_137" data-name="Rectangle 1 copy 137" x="433" y="192" width="15" height="15"/>
  <rect id="Rectangle_1_copy_149" data-name="Rectangle 1 copy 149" x="448" y="177" width="15" height="15"/>
  <rect id="Rectangle_1_copy_150" data-name="Rectangle 1 copy 150" x="463" y="162" width="15" height="15"/>
  <rect id="Rectangle_1_copy_153" data-name="Rectangle 1 copy 153" x="448" y="147" width="15" height="15"/>
  <rect id="Rectangle_1_copy_148" data-name="Rectangle 1 copy 148" x="448" y="207" width="15" height="15"/>
  <rect id="Rectangle_1_copy_129" data-name="Rectangle 1 copy 129" x="463" y="207" width="15" height="15"/>
  <rect id="Rectangle_1_copy_130" data-name="Rectangle 1 copy 130" x="478" y="207" width="15" height="15"/>
  <rect id="Rectangle_1_copy_131" data-name="Rectangle 1 copy 131" x="493" y="192" width="15" height="15"/>
  <rect id="Rectangle_1_copy_132" data-name="Rectangle 1 copy 132" x="508" y="177" width="15" height="15"/>
  <rect id="Rectangle_1_copy_133" data-name="Rectangle 1 copy 133" x="523" y="162" width="15" height="15"/>
  <rect id="Rectangle_1_copy_134" data-name="Rectangle 1 copy 134" x="538" y="177" width="15" height="15"/>
  <rect id="Rectangle_1_copy_135" data-name="Rectangle 1 copy 135" x="538" y="192" width="15" height="15"/>
  <rect id="Rectangle_1_copy_136" data-name="Rectangle 1 copy 136" x="523" y="207" width="15" height="15"/>
  <rect id="Rectangle_1_copy_108" data-name="Rectangle 1 copy 108" x="298" y="27" width="15" height="15"/>
  <rect id="Rectangle_1_copy_111" data-name="Rectangle 1 copy 111" x="313" y="27" width="15" height="15"/>
  <rect id="Rectangle_1_copy_112" data-name="Rectangle 1 copy 112" x="328" y="27" width="15" height="15"/>
  <rect id="Rectangle_1_copy_113" data-name="Rectangle 1 copy 113" x="343" y="27" width="15" height="15"/>
  <rect id="Rectangle_1_copy_121" data-name="Rectangle 1 copy 121" x="358" y="27" width="15" height="15"/>
  <rect id="Rectangle_1_copy_192" data-name="Rectangle 1 copy 192" x="928" y="26" width="15" height="15"/>
  <rect id="Rectangle_1_copy_192-2" data-name="Rectangle 1 copy 192" x="943" y="26" width="15" height="15"/>
  <rect id="Rectangle_1_copy_192-3" data-name="Rectangle 1 copy 192" x="958" y="26" width="15" height="15"/>
  <rect id="Rectangle_1_copy_192-4" data-name="Rectangle 1 copy 192" x="973" y="26" width="15" height="15"/>
  <rect id="Rectangle_1_copy_192-5" data-name="Rectangle 1 copy 192" x="988" y="26" width="15" height="15"/>
  <rect id="Rectangle_1_copy_192-6" data-name="Rectangle 1 copy 192" x="1003" y="26" width="15" height="15"/>
  <rect id="Rectangle_1_copy_192-7" data-name="Rectangle 1 copy 192" x="1018" y="26" width="15" height="15"/>
  <rect id="Rectangle_1_copy_192-8" data-name="Rectangle 1 copy 192" x="1033" y="26" width="15" height="15"/>
  <rect id="Rectangle_1_copy_192-9" data-name="Rectangle 1 copy 192" x="1048" y="26" width="15" height="15"/>
  <rect id="Rectangle_1_copy_122" data-name="Rectangle 1 copy 122" x="373" y="42" width="15" height="15"/>
  <rect id="Rectangle_1_copy_124" data-name="Rectangle 1 copy 124" x="403" y="72" width="15" height="15"/>
  <rect id="Rectangle_1_copy_125" data-name="Rectangle 1 copy 125" x="388" y="57" width="15" height="15"/>
  <rect id="Rectangle_1_copy_126" data-name="Rectangle 1 copy 126" x="403" y="87" width="15" height="15"/>
  <rect id="Rectangle_1_copy_128" data-name="Rectangle 1 copy 128" x="403" y="102" width="15" height="15"/>
  <rect id="Rectangle_1_copy_138" data-name="Rectangle 1 copy 138" x="388" y="117" width="15" height="15"/>
  <rect id="Rectangle_1_copy_139" data-name="Rectangle 1 copy 139" x="373" y="117" width="15" height="15"/>
  <rect id="Rectangle_1_copy_140" data-name="Rectangle 1 copy 140" x="358" y="117" width="15" height="15"/>
  <rect id="Rectangle_1_copy_141" data-name="Rectangle 1 copy 141" x="343" y="117" width="15" height="15"/>
  <rect id="Rectangle_1_copy_142" data-name="Rectangle 1 copy 142" x="328" y="117" width="15" height="15"/>
  <rect id="Rectangle_1_copy_193" data-name="Rectangle 1 copy 193" x="958" y="117" width="15" height="15"/>
  <rect id="Rectangle_1_copy_193-2" data-name="Rectangle 1 copy 193" x="943" y="117" width="15" height="15"/>
  <rect id="Rectangle_1_copy_193-3" data-name="Rectangle 1 copy 193" x="928" y="117" width="15" height="15"/>
  <rect id="Rectangle_1_copy_193-4" data-name="Rectangle 1 copy 193" x="913" y="117" width="15" height="15"/>
  <rect id="Rectangle_1_copy_193-5" data-name="Rectangle 1 copy 193" x="898" y="117" width="15" height="15"/>
  <rect id="Rectangle_1_copy_143" data-name="Rectangle 1 copy 143" x="313" y="132" width="15" height="15"/>
  <rect id="Rectangle_1_copy_144" data-name="Rectangle 1 copy 144" x="298" y="147" width="15" height="15"/>
  <rect id="Rectangle_1_copy_145" data-name="Rectangle 1 copy 145" x="313" y="162" width="15" height="15"/>
  <rect id="Rectangle_1_copy_147" data-name="Rectangle 1 copy 147" x="328" y="162" width="15" height="15"/>
  <rect id="Rectangle_1_copy_146" data-name="Rectangle 1 copy 146" x="313" y="147" width="15" height="15"/>
  <rect id="Rectangle_1_copy_194" data-name="Rectangle 1 copy 194" x="973" y="132" width="15" height="15"/>
  <rect id="Rectangle_1_copy_194-2" data-name="Rectangle 1 copy 194" x="973" y="162" width="15" height="15"/>
  <rect id="Rectangle_1_copy_194-3" data-name="Rectangle 1 copy 194" x="973" y="147" width="15" height="15"/>
  <rect id="Rectangle_1_copy_195" data-name="Rectangle 1 copy 195" x="973" y="132" width="15" height="15"/>
  <rect id="Rectangle_1_copy_195-2" data-name="Rectangle 1 copy 195" x="973" y="162" width="15" height="15"/>
  <rect id="Rectangle_1_copy_196" data-name="Rectangle 1 copy 196" x="958" y="162" width="15" height="15"/>
  <rect id="Rectangle_1_copy_195-3" data-name="Rectangle 1 copy 195" x="973" y="147" width="15" height="15"/>
  <rect id="Rectangle_1_copy_197" data-name="Rectangle 1 copy 197" x="988" y="147" width="15" height="15"/>
  <rect id="Rectangle_1_copy_127" data-name="Rectangle 1 copy 127" x="418" y="87" width="15" height="15"/>
  <rect id="Rectangle_1_copy_190" data-name="Rectangle 1 copy 190" x="883" y="72" width="15" height="15"/>
  <rect id="Rectangle_1_copy_190-2" data-name="Rectangle 1 copy 190" x="883" y="87" width="15" height="15"/>
  <rect id="Rectangle_1_copy_190-3" data-name="Rectangle 1 copy 190" x="883" y="102" width="15" height="15"/>
  <rect id="Rectangle_1_copy_191" data-name="Rectangle 1 copy 191" x="913" y="42" width="15" height="15"/>
  <rect id="Rectangle_1_copy_191-2" data-name="Rectangle 1 copy 191" x="898" y="57" width="15" height="15"/>
  <rect id="Rectangle_1_copy_190-4" data-name="Rectangle 1 copy 190" x="868" y="87" width="15" height="15"/>
  <rect id="Rectangle_1_copy_151" data-name="Rectangle 1 copy 151" x="433" y="102" width="15" height="15"/>
  <rect id="Rectangle_1_copy_152" data-name="Rectangle 1 copy 152" x="448" y="102" width="15" height="15"/>
  <rect id="Rectangle_1_copy_154" data-name="Rectangle 1 copy 154" x="463" y="102" width="15" height="15"/>
  <rect id="Rectangle_1_copy_155" data-name="Rectangle 1 copy 155" x="478" y="102" width="15" height="15"/>
  <rect id="Rectangle_1_copy_156" data-name="Rectangle 1 copy 156" x="493" y="102" width="15" height="15"/>
  <rect id="Rectangle_1_copy_162" data-name="Rectangle 1 copy 162" x="508" y="102" width="15" height="15"/>
  <rect id="Rectangle_1_copy_189" data-name="Rectangle 1 copy 189" x="778" y="102" width="15" height="15"/>
  <rect id="Rectangle_1_copy_189-2" data-name="Rectangle 1 copy 189" x="793" y="102" width="15" height="15"/>
  <rect id="Rectangle_1_copy_189-3" data-name="Rectangle 1 copy 189" x="808" y="102" width="15" height="15"/>
  <rect id="Rectangle_1_copy_189-4" data-name="Rectangle 1 copy 189" x="823" y="102" width="15" height="15"/>
  <rect id="Rectangle_1_copy_189-5" data-name="Rectangle 1 copy 189" x="838" y="102" width="15" height="15"/>
  <rect id="Rectangle_1_copy_189-6" data-name="Rectangle 1 copy 189" x="853" y="102" width="15" height="15"/>
  <rect id="Rectangle_1_copy_163" data-name="Rectangle 1 copy 163" x="538" y="57" width="15" height="15"/>
  <rect id="Rectangle_1_copy_164" data-name="Rectangle 1 copy 164" x="538" y="72" width="15" height="15"/>
  <rect id="Rectangle_1_copy_172" data-name="Rectangle 1 copy 172" x="748" y="57" width="15" height="15"/>
  <rect id="Rectangle_1_copy_172-2" data-name="Rectangle 1 copy 172" x="748" y="72" width="15" height="15"/>
  <rect id="Rectangle_1_copy_165" data-name="Rectangle 1 copy 165" x="523" y="87" width="15" height="15"/>
  <rect id="Rectangle_1_copy_188" data-name="Rectangle 1 copy 188" x="763" y="87" width="15" height="15"/>
  <rect id="Rectangle_1_copy_99" data-name="Rectangle 1 copy 99" x="163" y="72" width="15" height="15"/>
  <rect id="Rectangle_1_copy_76" data-name="Rectangle 1 copy 76" x="118" y="162" width="15" height="15"/>
  <rect id="Rectangle_1_copy_77" data-name="Rectangle 1 copy 77" x="133" y="162" width="15" height="15"/>
  <rect id="Rectangle_1_copy_78" data-name="Rectangle 1 copy 78" x="148" y="162" width="15" height="15"/>
  <rect id="Rectangle_1_copy_79" data-name="Rectangle 1 copy 79" x="163" y="162" width="15" height="15"/>
  <rect id="Rectangle_1_copy_80" data-name="Rectangle 1 copy 80" x="178" y="162" width="15" height="15"/>
  <rect id="Rectangle_1_copy_81" data-name="Rectangle 1 copy 81" x="193" y="162" width="15" height="15"/>
  <rect id="Rectangle_1_copy_82" data-name="Rectangle 1 copy 82" x="208" y="162" width="15" height="15"/>
  <rect id="Rectangle_1_copy_83" data-name="Rectangle 1 copy 83" x="223" y="177" width="15" height="15"/>
  <rect id="Rectangle_1_copy_84" data-name="Rectangle 1 copy 84" x="223" y="192" width="15" height="15"/>
  <rect id="Rectangle_1_copy_85" data-name="Rectangle 1 copy 85" x="208" y="207" width="15" height="15"/>
  <rect id="Rectangle_1_copy_86" data-name="Rectangle 1 copy 86" x="193" y="207" width="15" height="15"/>
  <rect id="Rectangle_1_copy_87" data-name="Rectangle 1 copy 87" x="178" y="207" width="15" height="15"/>
  <rect id="Rectangle_1_copy_88" data-name="Rectangle 1 copy 88" x="163" y="192" width="15" height="15"/>
  <rect id="Rectangle_1_copy_89" data-name="Rectangle 1 copy 89" x="148" y="192" width="15" height="15"/>
  <rect id="Rectangle_1_copy_90" data-name="Rectangle 1 copy 90" x="133" y="192" width="15" height="15"/>
  <rect id="Rectangle_1_copy_91" data-name="Rectangle 1 copy 91" x="133" y="207" width="15" height="15"/>
  <rect id="Rectangle_1_copy_56" data-name="Rectangle 1 copy 56" x="43" y="177" width="15" height="15"/>
  <rect id="Rectangle_1_copy_57" data-name="Rectangle 1 copy 57" x="58" y="162" width="15" height="15"/>
  <rect id="Rectangle_1_copy_58" data-name="Rectangle 1 copy 58" x="73" y="147" width="15" height="15"/>
  <rect id="Rectangle_1_copy_59" data-name="Rectangle 1 copy 59" x="88" y="132" width="15" height="15"/>
  <rect id="Rectangle_1_copy_60" data-name="Rectangle 1 copy 60" x="103" y="117" width="15" height="15"/>
  <rect id="Rectangle_1_copy_61" data-name="Rectangle 1 copy 61" x="118" y="102" width="15" height="15"/>
  <rect id="Rectangle_1_copy_62" data-name="Rectangle 1 copy 62" x="133" y="87" width="15" height="15"/>
  <rect id="Rectangle_1_copy_63" data-name="Rectangle 1 copy 63" x="148" y="72" width="15" height="15"/>
  <rect id="Rectangle_1_copy_64" data-name="Rectangle 1 copy 64" x="148" y="57" width="15" height="15"/>
  <rect id="Rectangle_1_copy_65" data-name="Rectangle 1 copy 65" x="133" y="42" width="15" height="15"/>
  <rect id="Rectangle_1_copy_66" data-name="Rectangle 1 copy 66" x="133" y="27" width="15" height="15"/>
  <rect id="Rectangle_1_copy_67" data-name="Rectangle 1 copy 67" x="133" y="12" width="15" height="15"/>
  <rect id="Rectangle_1_copy_68" data-name="Rectangle 1 copy 68" x="148" y="12" width="15" height="15"/>
  <rect id="Rectangle_1_copy_69" data-name="Rectangle 1 copy 69" x="163" y="27" width="15" height="15"/>
  <rect id="Rectangle_1_copy_71" data-name="Rectangle 1 copy 71" x="178" y="27" width="15" height="15"/>
  <rect id="Rectangle_1_copy_70" data-name="Rectangle 1 copy 70" x="163" y="42" width="15" height="15"/>
  <rect id="Rectangle_1_copy_52" data-name="Rectangle 1 copy 52" x="43" y="132" width="15" height="15"/>
  <rect id="Rectangle_1_copy_198" data-name="Rectangle 1 copy 198" x="1258" y="86" width="15" height="15"/>
  <rect id="Rectangle_1_copy_198-2" data-name="Rectangle 1 copy 198" x="1243" y="86" width="15" height="15"/>
  <rect id="Rectangle_1_copy_198-3" data-name="Rectangle 1 copy 198" x="1243" y="71" width="15" height="15"/>
  <rect id="Rectangle_1_copy_198-4" data-name="Rectangle 1 copy 198" x="1258" y="56" width="15" height="15"/>
  <rect id="Rectangle_1_copy_198-5" data-name="Rectangle 1 copy 198" x="1273" y="41" width="15" height="15"/>
  <rect id="Rectangle_1_copy_198-6" data-name="Rectangle 1 copy 198" x="1273" y="26" width="15" height="15"/>
  <rect id="Rectangle_1_copy_198-7" data-name="Rectangle 1 copy 198" x="1258" y="11" width="15" height="15"/>
  <rect id="Rectangle_1_copy_198-8" data-name="Rectangle 1 copy 198" x="1243" y="11" width="15" height="15"/>
  <rect id="Rectangle_1_copy_198-9" data-name="Rectangle 1 copy 198" x="1228" y="11" width="15" height="15"/>
  <rect id="Rectangle_1_copy_198-10" data-name="Rectangle 1 copy 198" x="1213" y="26" width="15" height="15"/>
  <rect id="Rectangle_1_copy_198-11" data-name="Rectangle 1 copy 198" x="1213" y="41" width="15" height="15"/>
  <rect id="Rectangle_1_copy_198-12" data-name="Rectangle 1 copy 198" x="1213" y="56" width="15" height="15"/>
  <rect id="Rectangle_1_copy_198-13" data-name="Rectangle 1 copy 198" x="1213" y="71" width="15" height="15"/>
  <rect id="Rectangle_1_copy_198-14" data-name="Rectangle 1 copy 198" x="1213" y="86" width="15" height="15"/>
  <rect id="Rectangle_1_copy_198-15" data-name="Rectangle 1 copy 198" x="1213" y="101" width="15" height="15"/>
  <rect id="Rectangle_1_copy_198-16" data-name="Rectangle 1 copy 198" x="1228" y="116" width="15" height="15"/>
  <rect id="Rectangle_1_copy_198-17" data-name="Rectangle 1 copy 198" x="1258" y="146" width="15" height="15"/>
  <rect id="Rectangle_1_copy_198-18" data-name="Rectangle 1 copy 198" x="1273" y="191" width="15" height="15"/>
  <rect id="Rectangle_1_copy_199" data-name="Rectangle 1 copy 199" x="1273" y="176" width="15" height="15"/>
  <rect id="Rectangle_1_copy_200" data-name="Rectangle 1 copy 200" x="1273" y="161" width="15" height="15"/>
  <rect id="Rectangle_1_copy_198-19" data-name="Rectangle 1 copy 198" x="1258" y="191" width="15" height="15"/>
  <rect id="Rectangle_1_copy_198-20" data-name="Rectangle 1 copy 198" x="1228" y="206" width="15" height="15"/>
  <rect id="Rectangle_1_copy_198-21" data-name="Rectangle 1 copy 198" x="1243" y="206" width="15" height="15"/>
  <rect id="Rectangle_1_copy_198-22" data-name="Rectangle 1 copy 198" x="1213" y="191" width="15" height="15"/>
  <rect id="Rectangle_1_copy_198-23" data-name="Rectangle 1 copy 198" x="1198" y="176" width="15" height="15"/>
  <rect id="Rectangle_1_copy_198-24" data-name="Rectangle 1 copy 198" x="1183" y="161" width="15" height="15"/>
  <rect id="Rectangle_1_copy_198-25" data-name="Rectangle 1 copy 198" x="1168" y="146" width="15" height="15"/>
  <rect id="Rectangle_1_copy_198-26" data-name="Rectangle 1 copy 198" x="1153" y="131" width="15" height="15"/>
  <rect id="Rectangle_1_copy_198-27" data-name="Rectangle 1 copy 198" x="1138" y="116" width="15" height="15"/>
  <rect id="Rectangle_1_copy_198-28" data-name="Rectangle 1 copy 198" x="1123" y="101" width="15" height="15"/>
  <rect id="Rectangle_1_copy_198-29" data-name="Rectangle 1 copy 198" x="1108" y="86" width="15" height="15"/>
  <rect id="Rectangle_1_copy_198-30" data-name="Rectangle 1 copy 198" x="1093" y="71" width="15" height="15"/>
  <rect id="Rectangle_1_copy_198-31" data-name="Rectangle 1 copy 198" x="1078" y="56" width="15" height="15"/>
  <rect id="Rectangle_1_copy_198-32" data-name="Rectangle 1 copy 198" x="1063" y="41" width="15" height="15"/>
  <rect id="Rectangle_1_copy_198-33" data-name="Rectangle 1 copy 198" x="1123" y="71" width="15" height="15"/>
  <rect id="Rectangle_1_copy_198-34" data-name="Rectangle 1 copy 198" x="1168" y="161" width="15" height="15"/>
  <rect id="Rectangle_1_copy_198-35" data-name="Rectangle 1 copy 198" x="1153" y="161" width="15" height="15"/>
  <rect id="Rectangle_1_copy_198-36" data-name="Rectangle 1 copy 198" x="1138" y="161" width="15" height="15"/>
  <rect id="Rectangle_1_copy_198-37" data-name="Rectangle 1 copy 198" x="1123" y="161" width="15" height="15"/>
  <rect id="Rectangle_1_copy_198-38" data-name="Rectangle 1 copy 198" x="1108" y="161" width="15" height="15"/>
  <rect id="Rectangle_1_copy_198-39" data-name="Rectangle 1 copy 198" x="1093" y="161" width="15" height="15"/>
  <rect id="Rectangle_1_copy_198-40" data-name="Rectangle 1 copy 198" x="1078" y="161" width="15" height="15"/>
  <rect id="Rectangle_1_copy_198-41" data-name="Rectangle 1 copy 198" x="1063" y="176" width="15" height="15"/>
  <rect id="Rectangle_1_copy_198-42" data-name="Rectangle 1 copy 198" x="1063" y="191" width="15" height="15"/>
  <rect id="Rectangle_1_copy_198-43" data-name="Rectangle 1 copy 198" x="1078" y="206" width="15" height="15"/>
  <rect id="Rectangle_1_copy_198-44" data-name="Rectangle 1 copy 198" x="1093" y="206" width="15" height="15"/>
  <rect id="Rectangle_1_copy_198-45" data-name="Rectangle 1 copy 198" x="1108" y="206" width="15" height="15"/>
  <rect id="Rectangle_1_copy_198-46" data-name="Rectangle 1 copy 198" x="1123" y="191" width="15" height="15"/>
  <rect id="Rectangle_1_copy_198-47" data-name="Rectangle 1 copy 198" x="1138" y="191" width="15" height="15"/>
  <rect id="Rectangle_1_copy_198-48" data-name="Rectangle 1 copy 198" x="1153" y="191" width="15" height="15"/>
  <rect id="Rectangle_1_copy_198-49" data-name="Rectangle 1 copy 198" x="1153" y="206" width="15" height="15"/>
  <rect id="Rectangle_1_copy_198-50" data-name="Rectangle 1 copy 198" x="1243" y="176" width="15" height="15"/>
  <rect id="Rectangle_1_copy_198-51" data-name="Rectangle 1 copy 198" x="1228" y="161" width="15" height="15"/>
  <rect id="Rectangle_1_copy_198-52" data-name="Rectangle 1 copy 198" x="1213" y="146" width="15" height="15"/>
  <rect id="Rectangle_1_copy_198-53" data-name="Rectangle 1 copy 198" x="1198" y="131" width="15" height="15"/>
  <rect id="Rectangle_1_copy_198-54" data-name="Rectangle 1 copy 198" x="1183" y="116" width="15" height="15"/>
  <rect id="Rectangle_1_copy_198-55" data-name="Rectangle 1 copy 198" x="1168" y="101" width="15" height="15"/>
  <rect id="Rectangle_1_copy_198-56" data-name="Rectangle 1 copy 198" x="1153" y="86" width="15" height="15"/>
  <rect id="Rectangle_1_copy_198-57" data-name="Rectangle 1 copy 198" x="1138" y="71" width="15" height="15"/>
  <rect id="Rectangle_1_copy_198-58" data-name="Rectangle 1 copy 198" x="1138" y="56" width="15" height="15"/>
  <rect id="Rectangle_1_copy_198-59" data-name="Rectangle 1 copy 198" x="1153" y="41" width="15" height="15"/>
  <rect id="Rectangle_1_copy_198-60" data-name="Rectangle 1 copy 198" x="1153" y="26" width="15" height="15"/>
  <rect id="Rectangle_1_copy_198-61" data-name="Rectangle 1 copy 198" x="1153" y="11" width="15" height="15"/>
  <rect id="Rectangle_1_copy_198-62" data-name="Rectangle 1 copy 198" x="1138" y="11" width="15" height="15"/>
  <rect id="Rectangle_1_copy_198-63" data-name="Rectangle 1 copy 198" x="1123" y="26" width="15" height="15"/>
  <rect id="Rectangle_1_copy_198-64" data-name="Rectangle 1 copy 198" x="1108" y="26" width="15" height="15"/>
  <rect id="Rectangle_1_copy_198-65" data-name="Rectangle 1 copy 198" x="1123" y="41" width="15" height="15"/>
  <rect id="Rectangle_1_copy_198-66" data-name="Rectangle 1 copy 198" x="1243" y="131" width="15" height="15"/>
  <rect id="Rectangle_1_copy" data-name="Rectangle 1 copy" x="658" y="57" width="15" height="15"/>
  <rect id="Rectangle_1_copy_7" data-name="Rectangle 1 copy 7" x="658" y="42" width="15" height="15"/>
  <rect id="Rectangle_1_copy_19" data-name="Rectangle 1 copy 19" x="658" y="27" width="15" height="15"/>
  <rect id="Rectangle_1_copy_20" data-name="Rectangle 1 copy 20" x="673" y="12" width="15" height="15"/>
  <rect id="Rectangle_1_copy_21" data-name="Rectangle 1 copy 21" x="688" y="12" width="15" height="15"/>
  <rect id="Rectangle_1_copy_22" data-name="Rectangle 1 copy 22" x="703" y="12" width="15" height="15"/>
  <rect id="Rectangle_1_copy_23" data-name="Rectangle 1 copy 23" x="718" y="12" width="15" height="15"/>
  <rect id="Rectangle_1_copy_24" data-name="Rectangle 1 copy 24" x="733" y="27" width="15" height="15"/>
  <rect id="Rectangle_1_copy_25" data-name="Rectangle 1 copy 25" x="733" y="42" width="15" height="15"/>
  <rect id="Rectangle_1_copy_26" data-name="Rectangle 1 copy 26" x="718" y="57" width="15" height="15"/>
  <rect id="Rectangle_1_copy_27" data-name="Rectangle 1 copy 27" x="703" y="72" width="15" height="15"/>
  <rect id="Rectangle_1_copy_28" data-name="Rectangle 1 copy 28" x="703" y="87" width="15" height="15"/>
  <rect id="Rectangle_1_copy_29" data-name="Rectangle 1 copy 29" x="703" y="102" width="15" height="15"/>
  <rect id="Rectangle_1_copy_30" data-name="Rectangle 1 copy 30" x="703" y="117" width="15" height="15"/>
  <rect id="Rectangle_1_copy_31" data-name="Rectangle 1 copy 31" x="718" y="102" width="15" height="15"/>
</svg>
